# xmcd
# 
# Track frame offsets:
#     150
#     19500
#     33750
#     49968
#     70236
#     90411
#     107393
#     135893
#     157718
#     174678
#     192189
#     214070
# 
# Disc length: 3122
# 
# Revision: 0
# Processed by: cddbd v1.5.2PL0 Copyright (c) Steve Scherf et al.
# Submitted via: fre:ac v1.0.27
# 
DISCID=8a0c300c
DTITLE=Ibes Magora - Atmospherica
DYEAR=2017
DGENRE=Electronic
TTITLE0=Memoria Cero
TTITLE1=Intimity
TTITLE2=Curiosity in Space
TTITLE3=Sound Designer
TTITLE4=Electronic City
TTITLE5=Where are you going
TTITLE6=Insomnio
TTITLE7=Preludio
TTITLE8=Voyager
TTITLE9=Danser avec moi
TTITLE10=Moments
TTITLE11=Danser avec moi (Cyborgdrive Remix)
EXTD=
EXTT0=
EXTT1=
EXTT2=
EXTT3=
EXTT4=
EXTT5=
EXTT6=
EXTT7=
EXTT8=
EXTT9=
EXTT10=
EXTT11=
PLAYORDER=
